<?xml version="1.0" standalone="no"?><!DOCTYPE svg PUBLIC "-//W3C//DTD SVG 1.1//EN" "http://www.w3.org/Graphics/SVG/1.1/DTD/svg11.dtd"><svg t="1604664486557" class="icon" viewBox="0 0 1024 1024" version="1.1" xmlns="http://www.w3.org/2000/svg" p-id="8527" xmlns:xlink="http://www.w3.org/1999/xlink" width="200" height="200"><defs><style type="text/css"></style></defs><path d="M880 528L360.48 828.64a220.64 220.64 0 0 1-316.48-112 133.28 133.28 0 0 1 57.92-163.36l669.44-386.56a133.28 133.28 0 0 1 170.08 32A220.64 220.64 0 0 1 880 528z" fill="#C078FF" p-id="8528"></path><path d="M151.52 824.96l88.48-22.4 660-380.96 80-77.76s10.72 60.64-17.44 101.12A140.64 140.64 0 0 1 908 496L326.72 832s-77.44 34.08-106.08 26.4a332.16 332.16 0 0 1-69.12-33.44z" fill="#9A45F4" p-id="8529"></path><path d="M115.84 608l696.32-401.6A126.4 126.4 0 0 1 976 240a125.28 125.28 0 0 0-179.2-60.32L100.16 580.96A125.28 125.28 0 0 0 62.72 766.4 126.4 126.4 0 0 1 115.84 608z" fill="#FFFFFF" p-id="8530"></path><path d="M971.04 175.2a142.88 142.88 0 0 0-182.24-33.6L71.52 555.68A142.88 142.88 0 0 0 9.44 730.4a236 236 0 0 0 331.2 124.64 63.04 63.04 0 1 0 105.44-60.48l360.48-208A63.04 63.04 0 1 0 912 525.28a236.32 236.32 0 0 0 59.04-350.08zM124.8 790.72a120.64 120.64 0 0 1-41.12-25.92 190.4 190.4 0 0 1-29.6-51.52A94.4 94.4 0 0 1 96 597.28l716.8-414.08a94.88 94.88 0 0 1 120.96 22.4A188.16 188.16 0 0 1 960 248.64a119.84 119.84 0 0 1 4.8 57.92 154.56 154.56 0 0 1-80 107.04l-624 360.64a158.56 158.56 0 0 1-136 16.48z m756.96-303.2l-557.28 321.6a188.16 188.16 0 0 1-93.92 25.28 192 192 0 0 1-40.48-4.32 211.52 211.52 0 0 0 85.28-28l624-360.64a209.44 209.44 0 0 0 66.72-60.16 188 188 0 0 1-84.32 106.24z" fill="#3A394B" p-id="8531"></path></svg>