<?xml version="1.0" standalone="no"?><!DOCTYPE svg PUBLIC "-//W3C//DTD SVG 1.1//EN" "http://www.w3.org/Graphics/SVG/1.1/DTD/svg11.dtd"><svg t="1604664420197" class="icon" viewBox="0 0 1024 1024" version="1.1" xmlns="http://www.w3.org/2000/svg" p-id="8076" xmlns:xlink="http://www.w3.org/1999/xlink" width="200" height="200"><defs><style type="text/css"></style></defs><path d="M-1.421749 743.393623m141.014063-141.014063l462.787246-462.787246q141.014063-141.014063 282.028126 0l0.005657 0.005657q141.014063 141.014063 0 282.028126l-462.787246 462.787246q-141.014063 141.014063-282.028126 0l-0.005657-0.005657q-141.014063-141.014063 0-282.028126Z" fill="#80BC50" p-id="8077"></path><path d="M602.4 139.592L139.592 602.4a199.432 199.432 0 0 0 0 282.032c0.888 0.888 1.808 1.704 2.704 2.576l744.688-744.688c-0.872-0.896-1.688-1.816-2.576-2.704a199.432 199.432 0 0 0-282.008-0.024z" fill="#75B23F" p-id="8078"></path><path d="M235.256 606.688l38.496-38.496L455.8 750.24l-38.496 38.496z" fill="#D6EFC7" p-id="8079"></path><path d="M110.153786 603.582741m32.051736-32.051736l96.392797-96.392796q32.051736-32.051736 64.103472 0l0 0q32.051736 32.051736 0 64.103472l-96.392796 96.392797q-32.051736 32.051736-64.103473 0l0 0q-32.051736-32.051736 0-64.103473Z" fill="#0E3D36" p-id="8080"></path><path d="M356.313786 849.738055m32.051736-32.051736l96.392797-96.392797q32.051736-32.051736 64.103472 0l0 0q32.051736 32.051736 0 64.103473l-96.392796 96.392796q-32.051736 32.051736-64.103473 0l0 0q-32.051736-32.051736 0-64.103472Z" fill="#184D47" p-id="8081"></path><path d="M568.2 273.76l38.496-38.496 182.048 182.048-38.496 38.496z" fill="#D6EFC7" p-id="8082"></path><path d="M443.086473 270.654741m32.051736-32.051736l96.392796-96.392796q32.051736-32.051736 64.103473 0l0 0q32.051736 32.051736 0 64.103472l-96.392797 96.392797q-32.051736 32.051736-64.103472 0l0 0q-32.051736-32.051736 0-64.103473Z" fill="#0E3D36" p-id="8083"></path><path d="M689.238473 516.806741m32.051736-32.051736l96.392796-96.392796q32.051736-32.051736 64.103473 0l0 0q32.051736 32.051736 0 64.103472l-96.392797 96.392797q-32.051736 32.051736-64.103472 0l0 0q-32.051736-32.051736 0-64.103473Z" fill="#184D47" p-id="8084"></path><path d="M235.256 606.688l38.496-38.496 93.664 93.672-38.496 38.488zM568.2 273.76l38.496-38.496 93.664 93.664-38.496 38.496z" fill="#C2DDB1" p-id="8085"></path></svg>