<?xml version="1.0" standalone="no"?><!DOCTYPE svg PUBLIC "-//W3C//DTD SVG 1.1//EN" "http://www.w3.org/Graphics/SVG/1.1/DTD/svg11.dtd"><svg t="1604739654855" class="icon" viewBox="0 0 1024 1024" version="1.1" xmlns="http://www.w3.org/2000/svg" p-id="14345" xmlns:xlink="http://www.w3.org/1999/xlink" width="200" height="200"><defs><style type="text/css"></style></defs><path d="M165.056 557.248a21.333333 21.333333 0 0 1 0 30.186667L134.869333 617.6a21.333333 21.333333 0 1 1-30.165333-30.165333l30.165333-30.186667a21.333333 21.333333 0 0 1 30.186667 0z m301.696 301.696a21.333333 21.333333 0 0 1 0 30.186667l-30.186667 30.165333a21.333333 21.333333 0 0 1-30.165333-30.165333l30.165333-30.186667a21.333333 21.333333 0 0 1 30.186667 0z m150.826667-754.24a21.333333 21.333333 0 0 1 0 30.165333l-30.144 30.186667a21.333333 21.333333 0 0 1-30.186667-30.186667l30.186667-30.165333a21.333333 21.333333 0 0 1 30.165333 0zM919.317333 406.4a21.333333 21.333333 0 0 1 0 30.165333l-30.165333 30.186667a21.333333 21.333333 0 0 1-30.186667-30.186667l30.186667-30.165333a21.333333 21.333333 0 0 1 30.165333 0z" fill="#E9FF5B" p-id="14346"></path><path d="M361.152 843.861333a128 128 0 0 1-181.013333-181.013333l-15.082667-15.082667a64 64 0 1 1-90.517333-90.517333l30.165333-30.165333a64 64 0 1 1 90.517333 90.517333l15.082667 15.082667 23.509333-23.509334a21.333333 21.333333 0 0 0 3.989334-24.618666l-2.666667-5.333334a64 64 0 0 1 11.989333-73.877333l258.218667-258.218667a64 64 0 0 1 73.877333-11.989333l5.333334 2.666667a21.333333 21.333333 0 0 0 24.618666-3.989334l23.509334-23.509333-15.082667-15.082667a64 64 0 1 1-90.517333-90.517333l30.165333-30.165333a64 64 0 0 1 90.517333 90.517333l15.082667 15.082667a128 128 0 0 1 181.013333 181.013333l15.082667 15.082667a64 64 0 1 1 90.517333 90.517333l-30.165333 30.165333a64 64 0 1 1-90.517333-90.517333l-15.082667-15.082667-23.509333 23.509334a21.333333 21.333333 0 0 0-3.989334 24.618666l2.666667 5.333334a64 64 0 0 1-11.989333 73.877333L518.656 776.874667a64 64 0 0 1-73.877333 11.989333l-5.333334-2.666667a21.333333 21.333333 0 0 0-24.618666 3.989334l-23.509334 23.509333 15.082667 15.082667a64 64 0 1 1 90.517333 90.517333l-30.165333 30.165333a64 64 0 0 1-90.517333-90.517333l-15.082667-15.082667zM813.696 210.304a85.333333 85.333333 0 0 0-120.682667 0l-53.674666 53.674667a64 64 0 0 1-73.877334 11.989333l-5.333333-2.666667a21.333333 21.333333 0 0 0-24.618667 3.989334L277.290667 535.509333a21.333333 21.333333 0 0 0-3.989334 24.618667l2.666667 5.333333a64 64 0 0 1-11.989333 73.877334l-53.674667 53.674666a85.333333 85.333333 0 1 0 120.682667 120.682667l53.674666-53.674667a64 64 0 0 1 73.877334-11.989333l5.333333 2.666667a21.333333 21.333333 0 0 0 24.618667-3.989334l258.218666-258.218666a21.333333 21.333333 0 0 0 3.989334-24.618667l-2.666667-5.333333a64 64 0 0 1 11.989333-73.877334l53.674667-53.674666a85.333333 85.333333 0 0 0 0-120.682667zM466.773333 858.944a21.333333 21.333333 0 0 0-30.186666 0l-30.165334 30.186667a21.333333 21.333333 0 0 0 30.165334 30.165333l30.186666-30.165333a21.333333 21.333333 0 0 0 0-30.186667zM165.056 557.248a21.333333 21.333333 0 0 0-30.186667 0l-30.165333 30.186667a21.333333 21.333333 0 0 0 30.165333 30.165333l30.186667-30.165333a21.333333 21.333333 0 0 0 0-30.186667z m196.096 135.765333a21.333333 21.333333 0 1 1-30.165333 30.165334L300.8 693.013333a21.333333 21.333333 0 0 1 30.165333-30.165333l30.165334 30.165333z m362.026667-362.026666a21.333333 21.333333 0 0 1-30.165334 30.165333l-30.165333-30.165333a21.333333 21.333333 0 1 1 30.165333-30.165334l30.165334 30.165334z m196.117333 75.413333a21.333333 21.333333 0 0 0-30.165333 0l-30.186667 30.165333a21.333333 21.333333 0 0 0 30.186667 30.186667l30.165333-30.186667a21.333333 21.333333 0 0 0 0-30.165333zM617.6 104.704a21.333333 21.333333 0 0 0-30.165333 0L557.226667 134.869333a21.333333 21.333333 0 0 0 30.186666 30.186667l30.165334-30.186667a21.333333 21.333333 0 0 0 0-30.165333z" fill="#4E4E4E" p-id="14347"></path></svg>