<?xml version="1.0" encoding="iso-8859-1"?>
<!-- Generator: Adobe Illustrator 23.0.0, SVG Export Plug-In . SVG Version: 6.00 Build 0)  -->
<svg version="1.1" id="&#x56FE;&#x5C42;_1" xmlns="http://www.w3.org/2000/svg" xmlns:xlink="http://www.w3.org/1999/xlink" x="0px"
	 y="0px" viewBox="0 0 500 500" style="enable-background:new 0 0 500 500;" xml:space="preserve">
<g>
	<circle style="opacity:0.05;fill:#FFDF50;" cx="250" cy="250" r="228"/>
	<circle style="opacity:0.2;fill:#FFDF50;" cx="250" cy="250" r="186.706"/>
	<circle style="opacity:0.5;fill:#FFDF50;" cx="250" cy="250" r="163.412"/>
	<linearGradient id="SVGID_1_" gradientUnits="userSpaceOnUse" x1="250" y1="386.9412" x2="250" y2="113.0588">
		<stop  offset="0" style="stop-color:#FF8418"/>
		<stop  offset="1" style="stop-color:#FFDF52"/>
	</linearGradient>
	<circle style="fill:url(#SVGID_1_);" cx="250" cy="250" r="136.941"/>
	<path style="fill:#FFDF50;" d="M250,113.059c-59.818,0-110.677,38.355-129.329,91.812c17.397,9.228,46.633,21.909,74.27,20.776
		c43.059-1.765,33.529-44.471,47.647-43.765c14.118,0.706,50.824,19.059,82.588,12.706c17.658-3.531,28.88-11.752,40.216-18.358
		C341.055,138.239,298.468,113.059,250,113.059z"/>
	<path style="fill:#FFBC35;" d="M386.941,250c0-6.299-0.428-12.498-1.251-18.571c-43.107,13.741-104.534,5.809-118.749,8.336
		c-15.882,2.824-17.647,15.882-50.471,22.235c-23.927,4.631-76.547-9.305-103.314-17.199c-0.064,1.725-0.097,3.458-0.097,5.199
		c0,9.299,0.929,18.381,2.695,27.16c33.029,22.807,122.251,49.194,146.599,44.134c19.531-4.058,67.132,9.2,95.123,13.576
		C375.926,311.537,386.941,282.055,386.941,250z"/>
	<path style="fill:#FFB67C;" d="M250,386.941c24.891,0,48.23-6.642,68.343-18.248c-14.924-6.189-50.008-12.501-61.637-7.517
		c-14.824,6.353-31.765-10.941-60-8.118c-13.023,1.302-21.388,4.782-26.624,8.153C192.572,377.402,220.172,386.941,250,386.941z"/>
</g>
</svg>
