<?xml version="1.0" encoding="iso-8859-1"?>
<!-- Generator: Adobe Illustrator 23.0.0, SVG Export Plug-In . SVG Version: 6.00 Build 0)  -->
<svg version="1.1" id="&#x56FE;&#x5C42;_1" xmlns="http://www.w3.org/2000/svg" xmlns:xlink="http://www.w3.org/1999/xlink" x="0px"
	 y="0px" viewBox="0 0 1040 720" style="enable-background:new 0 0 1040 720;" xml:space="preserve">
<g>
	<path style="fill:#F0F0FF;" d="M68.126,502.485c0,122.764,144.437,145.121,215.87,145.121s242.66-87.666,329.337-87.666
		s132.763,30.334,207.032,30.334c61.152,0,147.509-11.644,147.509-68.977s-131.325-72.246-131.325-131.325
		s122.726-78.854,122.726-195.107S718.621,55.657,718.621,55.657S342.379,23.945,300.835,23.945S165.59,64.438,165.59,152.898
		s106.959,61.872,106.959,140.327S68.126,379.722,68.126,502.485z"/>
	<path style="fill:#C7D0FF;" d="M84.25,512.614c0,122.764,128.313,134.993,199.746,134.993s242.66-87.666,329.337-87.666
		s132.763,30.334,207.032,30.334c61.152,0,138.91-11.117,138.91-68.449s-158.558-72.774-158.558-131.853
		s147.271-78.1,147.271-194.353S718.621,64.438,718.621,64.438S342.379,23.945,300.835,23.945S189.874,64.438,189.874,152.898
		s93.424,61.872,93.424,140.327S84.25,389.85,84.25,512.614z"/>
	<g>
		<defs>
			<path id="SVGID_1_" d="M99.121,512.614c0,122.764,113.442,134.993,184.875,134.993s242.66-87.666,329.337-87.666
				s132.763,30.334,207.032,30.334c61.152,0,127.622-11.117,127.622-68.449s-158.02-72.774-158.02-131.853
				s130.014-78.1,130.014-194.353S718.621,64.438,718.621,64.438S342.379,36.487,300.835,36.487S189.874,64.438,189.874,152.898
				s107.578,61.872,107.578,140.327S99.121,389.85,99.121,512.614z"/>
		</defs>
		<clipPath id="SVGID_2_">
			<use xlink:href="#SVGID_1_"  style="overflow:visible;"/>
		</clipPath>
		<linearGradient id="SVGID_3_" gradientUnits="userSpaceOnUse" x1="522.8534" y1="55.1259" x2="523.7154" y2="623.7518">
			<stop  offset="0" style="stop-color:#160050"/>
			<stop  offset="1" style="stop-color:#110935"/>
		</linearGradient>
		<path style="clip-path:url(#SVGID_2_);fill:url(#SVGID_3_);" d="M99.121,512.614c0,122.764,113.442,134.993,184.875,134.993
			s242.66-87.666,329.337-87.666s132.763,30.334,207.032,30.334c61.152,0,127.622-11.117,127.622-68.449
			s-158.02-72.774-158.02-131.853s130.014-78.1,130.014-194.353S718.621,64.438,718.621,64.438S342.379,36.487,300.835,36.487
			S189.874,64.438,189.874,152.898s107.578,61.872,107.578,140.327S99.121,389.85,99.121,512.614z"/>
		<path style="clip-path:url(#SVGID_2_);fill:#180B59;" d="M391.512,649.398c0,0,47.478-35.116,87.431-52.136
			c39.953-17.02,215.531-37.266,251.005-58.944c35.474-21.679,50.524-92.985,125.234-104.451
			c74.71-11.466,48.194-74.352,25.262-78.114c-22.933-3.762-62.73-79.368-117.99-59.661
			c-55.259,19.708-23.548,131.504-54.543,152.645c-30.995,21.141-143.687,6.45-184.357,22.395
			c-40.67,15.945-153.631,96.197-167.561,169.212C342.064,713.358,391.512,649.398,391.512,649.398z"/>
		<path style="clip-path:url(#SVGID_2_);fill:#270B72;" d="M115.604,159.212c0,0,135.625,0.537,167.695-30.816
			S331.493,3.879,331.493,3.879l69.515,29.741c0,0,30.457,37.086,20.962,66.469c-9.496,29.382-59.123,15.766-66.648,28.307
			c-7.525,12.541,17.737,76.502-12.004,95.851s-47.119-18.633-98.36-18.633s-79.368,42.82-79.368,42.82L115.604,159.212z"/>
		<g style="opacity:0.3;clip-path:url(#SVGID_2_);">
			<circle style="fill:#FFFFFF;" cx="613.135" cy="100.089" r="1.433"/>
			<circle style="fill:#FFFFFF;" cx="307.127" cy="472.924" r="1.433"/>
			<circle style="fill:#FFFFFF;" cx="415.341" cy="428.133" r="1.433"/>
			<circle style="fill:#FFFFFF;" cx="773.842" cy="546.917" r="1.433"/>
			<circle style="fill:#FFFFFF;" cx="647.713" cy="360.052" r="1.433"/>
			<circle style="fill:#FFFFFF;" cx="500.621" cy="196.299" r="1.433"/>
			<circle style="fill:#FFFFFF;" cx="484.855" cy="76.44" r="1.433"/>
			<circle style="fill:#FFFFFF;" cx="571.748" cy="120.155" r="1.433"/>
			<circle style="fill:#FFFFFF;" cx="400.47" cy="497.648" r="1.433"/>
			<circle style="fill:#FFFFFF;" cx="435.944" cy="460.92" r="1.433"/>
			<circle style="fill:#FFFFFF;" cx="502.055" cy="128.396" r="1.433"/>
			<circle style="fill:#FFFFFF;" cx="272.011" cy="111.734" r="1.433"/>
			<circle style="fill:#FFFFFF;" cx="638.934" cy="298.062" r="1.433"/>
			<circle style="fill:#FFFFFF;" cx="583.036" cy="236.252" r="1.433"/>
			<circle style="fill:#FFFFFF;" cx="337.226" cy="342.136" r="1.433"/>
			<circle style="fill:#FFFFFF;" cx="371.088" cy="422.759" r="1.433"/>
		</g>
		<g style="clip-path:url(#SVGID_2_);">
			<circle style="fill:#FFFFFF;" cx="666.166" cy="256.318" r="1.433"/>
			<circle style="fill:#FFFFFF;" cx="755.568" cy="346.078" r="1.433"/>
			<circle style="fill:#FFFFFF;" cx="855.182" cy="481.523" r="1.433"/>
			<circle style="fill:#FFFFFF;" cx="900.689" cy="566.983" r="1.433"/>
			<circle style="fill:#FFFFFF;" cx="743.385" cy="554.084" r="1.433"/>
			<circle style="fill:#FFFFFF;" cx="415.878" cy="570.208" r="1.433"/>
			<circle style="fill:#FFFFFF;" cx="351.38" cy="481.523" r="1.433"/>
			<circle style="fill:#FFFFFF;" cx="127.07" cy="556.413" r="1.433"/>
			<circle style="fill:#FFFFFF;" cx="236.358" cy="391.405" r="1.433"/>
			<circle style="fill:#FFFFFF;" cx="343.318" cy="270.471" r="1.433"/>
			<circle style="fill:#FFFFFF;" cx="218.442" cy="159.212" r="1.433"/>
			<circle style="fill:#FFFFFF;" cx="685.874" cy="83.964" r="1.433"/>
			<circle style="fill:#FFFFFF;" cx="567.269" cy="159.212" r="1.433"/>
			<circle style="fill:#FFFFFF;" cx="353.172" cy="100.089" r="1.433"/>
			<circle style="fill:#FFFFFF;" cx="275.415" cy="83.964" r="1.433"/>
			<circle style="fill:#FFFFFF;" cx="696.266" cy="491.377" r="1.433"/>
			<circle style="fill:#FFFFFF;" cx="593.427" cy="413.98" r="1.433"/>
			<circle style="fill:#FFFFFF;" cx="472.314" cy="466.653" r="1.433"/>
			<circle style="fill:#FFFFFF;" cx="415.341" cy="152.046" r="1.433"/>
			<linearGradient id="SVGID_4_" gradientUnits="userSpaceOnUse" x1="642.1588" y1="230.1601" x2="652.1919" y2="230.1601">
				<stop  offset="0" style="stop-color:#00D4EF"/>
				<stop  offset="1" style="stop-color:#00F0F3"/>
			</linearGradient>
			<circle style="opacity:0.5;fill:url(#SVGID_4_);" cx="647.175" cy="230.16" r="5.017"/>
			<circle style="fill:#1673C8;" cx="696.266" cy="337.119" r="3.583"/>
			<circle style="fill:#5D4641;" cx="266.816" cy="443.72" r="5.196"/>
			<circle style="fill:#504B85;" cx="373.775" cy="241.268" r="3.583"/>
			<circle style="fill:#582B73;" cx="234.567" cy="116.393" r="7.525"/>
		</g>
		<g style="clip-path:url(#SVGID_2_);">
			<radialGradient id="SVGID_5_" cx="695.7281" cy="422.7586" r="6.4397" gradientUnits="userSpaceOnUse">
				<stop  offset="0" style="stop-color:#FFFFFF"/>
				<stop  offset="1" style="stop-color:#FFFFFF;stop-opacity:0"/>
			</radialGradient>
			<polygon style="fill:url(#SVGID_5_);" points="697.509,423.457 702.158,422.725 697.509,421.993 696.474,421.993 
				696.474,420.957 695.742,416.309 695.009,420.957 695.03,422.013 693.974,421.993 689.299,422.725 693.974,423.457 
				695.03,423.437 695.009,424.492 695.742,429.208 696.474,424.492 696.463,423.447 			"/>
			<radialGradient id="SVGID_6_" cx="846.7611" cy="572.1791" r="6.4397" gradientUnits="userSpaceOnUse">
				<stop  offset="0" style="stop-color:#FFFFFF"/>
				<stop  offset="1" style="stop-color:#FFFFFF;stop-opacity:0"/>
			</radialGradient>
			<polygon style="fill:url(#SVGID_6_);" points="848.542,572.878 853.191,572.145 848.542,571.413 847.507,571.413 
				847.507,570.378 846.775,565.729 846.042,570.378 846.063,571.434 845.007,571.413 840.332,572.145 845.007,572.878 
				846.063,572.857 846.042,573.913 846.775,578.629 847.507,573.913 847.497,572.867 			"/>
			<radialGradient id="SVGID_7_" cx="381.2999" cy="544.7675" r="6.4397" gradientUnits="userSpaceOnUse">
				<stop  offset="0" style="stop-color:#FFFFFF"/>
				<stop  offset="1" style="stop-color:#FFFFFF;stop-opacity:0"/>
			</radialGradient>
			<polygon style="fill:url(#SVGID_7_);" points="383.081,545.466 387.729,544.734 383.081,544.002 382.045,544.002 
				382.046,542.966 381.313,538.318 380.581,542.966 380.602,544.022 379.546,544.002 374.87,544.734 379.546,545.466 
				380.602,545.445 380.581,546.501 381.313,551.217 382.046,546.501 382.035,545.456 			"/>
			<radialGradient id="SVGID_8_" cx="324.5057" cy="254.8844" r="6.4397" gradientUnits="userSpaceOnUse">
				<stop  offset="0" style="stop-color:#FFFFFF"/>
				<stop  offset="1" style="stop-color:#FFFFFF;stop-opacity:0"/>
			</radialGradient>
			<polygon style="fill:url(#SVGID_8_);" points="326.287,255.583 330.935,254.851 326.287,254.118 325.251,254.119 
				325.251,253.083 324.519,248.435 323.787,253.083 323.807,254.139 322.752,254.118 318.076,254.851 322.752,255.583 
				323.807,255.562 323.787,256.618 324.519,261.334 325.251,256.618 325.241,255.573 			"/>
			<radialGradient id="SVGID_9_" cx="242.0915" cy="77.5146" r="6.4397" gradientUnits="userSpaceOnUse">
				<stop  offset="0" style="stop-color:#FFFFFF"/>
				<stop  offset="1" style="stop-color:#FFFFFF;stop-opacity:0"/>
			</radialGradient>
			<polygon style="fill:url(#SVGID_9_);" points="243.873,78.213 248.521,77.481 243.873,76.749 242.837,76.749 242.837,75.713 
				242.105,71.065 241.373,75.713 241.393,76.769 240.337,76.749 235.662,77.481 240.337,78.213 241.393,78.193 241.373,79.249 
				242.105,83.964 242.837,79.249 242.827,78.203 			"/>
			<radialGradient id="SVGID_10_" cx="444.3647" cy="121.9466" r="6.4397" gradientUnits="userSpaceOnUse">
				<stop  offset="0" style="stop-color:#FFFFFF"/>
				<stop  offset="1" style="stop-color:#FFFFFF;stop-opacity:0"/>
			</radialGradient>
			<polygon style="fill:url(#SVGID_10_);" points="446.146,122.645 450.794,121.913 446.146,121.181 445.11,121.181 445.11,120.145 
				444.378,115.497 443.646,120.145 443.666,121.201 442.611,121.181 437.935,121.913 442.611,122.645 443.666,122.625 
				443.646,123.681 444.378,128.396 445.11,123.681 445.1,122.635 			"/>
			<radialGradient id="SVGID_11_" cx="307.1271" cy="403.0508" r="13.7983" gradientUnits="userSpaceOnUse">
				<stop  offset="0" style="stop-color:#FFFFFF"/>
				<stop  offset="1" style="stop-color:#FFFFFF;stop-opacity:0"/>
			</radialGradient>
			<polygon style="fill:url(#SVGID_11_);" points="310.943,404.547 320.904,402.979 310.943,401.41 308.724,401.41 308.725,399.191 
				307.156,389.231 305.587,399.191 305.631,401.453 303.368,401.41 293.35,402.979 303.368,404.547 305.631,404.504 
				305.587,406.766 307.156,416.871 308.725,406.766 308.703,404.525 			"/>
			<radialGradient id="SVGID_12_" cx="850.3444" cy="293.9416" r="13.7983" gradientUnits="userSpaceOnUse">
				<stop  offset="0" style="stop-color:#FFFFFF"/>
				<stop  offset="1" style="stop-color:#FFFFFF;stop-opacity:0"/>
			</radialGradient>
			<polygon style="fill:url(#SVGID_12_);" points="854.161,295.438 864.121,293.869 854.161,292.3 851.942,292.301 851.942,290.082 
				850.373,280.122 848.804,290.082 848.848,292.344 846.586,292.3 836.568,293.869 846.586,295.438 848.848,295.394 
				848.804,297.657 850.373,307.762 851.942,297.657 851.92,295.416 			"/>
			<radialGradient id="SVGID_13_" cx="791.5794" cy="481.5235" r="13.7983" gradientUnits="userSpaceOnUse">
				<stop  offset="0" style="stop-color:#FFFFFF"/>
				<stop  offset="1" style="stop-color:#FFFFFF;stop-opacity:0"/>
			</radialGradient>
			<polygon style="fill:url(#SVGID_13_);" points="795.396,483.02 805.356,481.451 795.396,479.882 793.177,479.883 
				793.177,477.664 791.608,467.704 790.039,477.664 790.083,479.926 787.821,479.882 777.803,481.451 787.821,483.02 
				790.083,482.976 790.039,485.239 791.608,495.343 793.177,485.239 793.155,482.998 			"/>
		</g>
		<g style="clip-path:url(#SVGID_2_);">
			
				<radialGradient id="SVGID_14_" cx="-1476.3661" cy="-3065.1931" r="16.662" gradientTransform="matrix(0.7071 0.7071 -0.7071 0.7071 -493.6736 3371.8335)" gradientUnits="userSpaceOnUse">
				<stop  offset="0" style="stop-color:#FFFFB2"/>
				<stop  offset="0.321" style="stop-color:#FFF18E;stop-opacity:0.679"/>
				<stop  offset="0.7728" style="stop-color:#FFE060;stop-opacity:0.2272"/>
				<stop  offset="1" style="stop-color:#FFD94E;stop-opacity:0"/>
			</radialGradient>
			<circle style="fill:url(#SVGID_14_);" cx="629.797" cy="160.466" r="16.662"/>
			
				<linearGradient id="SVGID_15_" gradientUnits="userSpaceOnUse" x1="-1476.3654" y1="-3058.564" x2="-1476.3654" y2="-3418.3201" gradientTransform="matrix(0.7071 0.7071 -0.7071 0.7071 -493.6736 3371.8335)">
				<stop  offset="0" style="stop-color:#FF8418"/>
				<stop  offset="1" style="stop-color:#FFDF52;stop-opacity:0"/>
			</linearGradient>
			<path style="opacity:0.3;fill:url(#SVGID_15_);" d="M625.211,165.256c-5.802-5.802,12.826-24.429,12.826-24.429L879.597-89.13
				L649.436,152.227C649.436,152.227,631.013,171.057,625.211,165.256z"/>
			
				<linearGradient id="SVGID_16_" gradientUnits="userSpaceOnUse" x1="-1476.3654" y1="-3058.564" x2="-1476.3654" y2="-3316.8806" gradientTransform="matrix(0.7071 0.7071 -0.7071 0.7071 -493.6736 3371.8335)">
				<stop  offset="0" style="stop-color:#FF8418"/>
				<stop  offset="1" style="stop-color:#FFDF52;stop-opacity:0"/>
			</linearGradient>
			<path style="fill:url(#SVGID_16_);" d="M625.184,165.229c-4.254-4.254,9.121-17.629,9.121-17.629L807.842-17.429L642.664,155.959
				C642.664,155.959,629.439,169.483,625.184,165.229z"/>
			
				<linearGradient id="SVGID_17_" gradientUnits="userSpaceOnUse" x1="-1476.3654" y1="-3058.564" x2="-1476.3654" y2="-3199.7144" gradientTransform="matrix(0.7071 0.7071 -0.7071 0.7071 -493.6736 3371.8335)">
				<stop  offset="0" style="stop-color:#FFDF52"/>
				<stop  offset="1" style="stop-color:#FFD94E;stop-opacity:0"/>
			</linearGradient>
			<path style="fill:url(#SVGID_17_);" d="M625.15,165.195c-2.32-2.32,4.988-9.629,4.988-9.629l94.82-90.18l-90.261,94.739
				C634.698,160.125,627.471,167.515,625.15,165.195z"/>
			
				<linearGradient id="SVGID_18_" gradientUnits="userSpaceOnUse" x1="-1476.3654" y1="-3058.564" x2="-1476.3654" y2="-3107.3179" gradientTransform="matrix(0.7071 0.7071 -0.7071 0.7071 -493.6736 3371.8335)">
				<stop  offset="0" style="stop-color:#FFFFB2"/>
				<stop  offset="1" style="stop-color:#FFD94E;stop-opacity:0"/>
			</linearGradient>
			<path style="fill:url(#SVGID_18_);" d="M625.15,165.195c-2.32-2.32,4.988-9.629,4.988-9.629l29.486-24.845l-24.927,29.405
				C634.698,160.125,627.471,167.515,625.15,165.195z"/>
		</g>
		<g style="clip-path:url(#SVGID_2_);">
			
				<radialGradient id="SVGID_19_" cx="-1103.4708" cy="-2922.7288" r="7.2182" gradientTransform="matrix(0.7071 0.7071 -0.7071 0.7071 -493.6736 3371.8335)" gradientUnits="userSpaceOnUse">
				<stop  offset="0" style="stop-color:#FFFFB2"/>
				<stop  offset="0.321" style="stop-color:#FFF18E;stop-opacity:0.679"/>
				<stop  offset="0.7728" style="stop-color:#FFE060;stop-opacity:0.2272"/>
				<stop  offset="1" style="stop-color:#FFD94E;stop-opacity:0"/>
			</radialGradient>
			<circle style="fill:url(#SVGID_19_);" cx="792.736" cy="524.881" r="7.218"/>
			
				<linearGradient id="SVGID_20_" gradientUnits="userSpaceOnUse" x1="-1103.4706" y1="-2919.8569" x2="-1103.4706" y2="-3075.708" gradientTransform="matrix(0.7071 0.7071 -0.7071 0.7071 -493.6736 3371.8335)">
				<stop  offset="0" style="stop-color:#FF8418"/>
				<stop  offset="1" style="stop-color:#FFDF52;stop-opacity:0"/>
			</linearGradient>
			<path style="opacity:0.3;fill:url(#SVGID_20_);" d="M790.749,526.955c-2.513-2.513,5.556-10.583,5.556-10.583l104.647-99.62
				l-99.709,104.559C801.244,521.311,793.263,529.469,790.749,526.955z"/>
			
				<linearGradient id="SVGID_21_" gradientUnits="userSpaceOnUse" x1="-1103.4706" y1="-2919.8569" x2="-1103.4706" y2="-3031.7632" gradientTransform="matrix(0.7071 0.7071 -0.7071 0.7071 -493.6736 3371.8335)">
				<stop  offset="0" style="stop-color:#FF8418"/>
				<stop  offset="1" style="stop-color:#FFDF52;stop-opacity:0"/>
			</linearGradient>
			<path style="fill:url(#SVGID_21_);" d="M790.738,526.944c-1.843-1.843,3.951-7.637,3.951-7.637l75.178-71.492l-71.557,75.114
				C798.31,522.928,792.581,528.787,790.738,526.944z"/>
			
				<linearGradient id="SVGID_22_" gradientUnits="userSpaceOnUse" x1="-1103.4706" y1="-2919.8569" x2="-1103.4706" y2="-2981.0051" gradientTransform="matrix(0.7071 0.7071 -0.7071 0.7071 -493.6736 3371.8335)">
				<stop  offset="0" style="stop-color:#FFDF52"/>
				<stop  offset="1" style="stop-color:#FFD94E;stop-opacity:0"/>
			</linearGradient>
			<path style="fill:url(#SVGID_22_);" d="M790.723,526.929c-1.005-1.005,2.161-4.171,2.161-4.171l41.077-39.067l-39.102,41.042
				C794.859,524.733,791.728,527.934,790.723,526.929z"/>
			
				<linearGradient id="SVGID_23_" gradientUnits="userSpaceOnUse" x1="-1103.4706" y1="-2919.8569" x2="-1103.4706" y2="-2940.9778" gradientTransform="matrix(0.7071 0.7071 -0.7071 0.7071 -493.6736 3371.8335)">
				<stop  offset="0" style="stop-color:#FFFFB2"/>
				<stop  offset="1" style="stop-color:#FFD94E;stop-opacity:0"/>
			</linearGradient>
			<path style="fill:url(#SVGID_23_);" d="M790.723,526.929c-1.005-1.005,2.161-4.171,2.161-4.171l12.774-10.763l-10.799,12.739
				C794.859,524.733,791.728,527.934,790.723,526.929z"/>
		</g>
		<g style="clip-path:url(#SVGID_2_);">
			
				<radialGradient id="SVGID_24_" cx="-1532.6838" cy="-2418.0107" r="7.2182" gradientTransform="matrix(0.7071 0.7071 -0.7071 0.7071 -493.6736 3371.8335)" gradientUnits="userSpaceOnUse">
				<stop  offset="0" style="stop-color:#FFFFB2"/>
				<stop  offset="0.321" style="stop-color:#FFF18E;stop-opacity:0.679"/>
				<stop  offset="0.7728" style="stop-color:#FFE060;stop-opacity:0.2272"/>
				<stop  offset="1" style="stop-color:#FFD94E;stop-opacity:0"/>
			</radialGradient>
			<circle style="fill:url(#SVGID_24_);" cx="132.347" cy="578.271" r="7.218"/>
			
				<linearGradient id="SVGID_25_" gradientUnits="userSpaceOnUse" x1="-1532.6835" y1="-2415.1392" x2="-1532.6835" y2="-2570.99" gradientTransform="matrix(0.7071 0.7071 -0.7071 0.7071 -493.6736 3371.8335)">
				<stop  offset="0" style="stop-color:#FF8418"/>
				<stop  offset="1" style="stop-color:#FFDF52;stop-opacity:0"/>
			</linearGradient>
			<path style="opacity:0.3;fill:url(#SVGID_25_);" d="M130.361,580.345c-2.513-2.513,5.556-10.583,5.556-10.583l104.647-99.62
				l-99.709,104.559C140.855,574.701,132.874,582.859,130.361,580.345z"/>
			
				<linearGradient id="SVGID_26_" gradientUnits="userSpaceOnUse" x1="-1532.6835" y1="-2415.1392" x2="-1532.6835" y2="-2527.0452" gradientTransform="matrix(0.7071 0.7071 -0.7071 0.7071 -493.6736 3371.8335)">
				<stop  offset="0" style="stop-color:#FF8418"/>
				<stop  offset="1" style="stop-color:#FFDF52;stop-opacity:0"/>
			</linearGradient>
			<path style="fill:url(#SVGID_26_);" d="M130.349,580.334c-1.843-1.843,3.951-7.637,3.951-7.637l75.178-71.492l-71.557,75.114
				C137.921,576.318,132.192,582.177,130.349,580.334z"/>
			
				<linearGradient id="SVGID_27_" gradientUnits="userSpaceOnUse" x1="-1532.6835" y1="-2415.1392" x2="-1532.6835" y2="-2476.2871" gradientTransform="matrix(0.7071 0.7071 -0.7071 0.7071 -493.6736 3371.8335)">
				<stop  offset="0" style="stop-color:#FFDF52"/>
				<stop  offset="1" style="stop-color:#FFD94E;stop-opacity:0"/>
			</linearGradient>
			<path style="fill:url(#SVGID_27_);" d="M130.334,580.319c-1.005-1.005,2.161-4.171,2.161-4.171l41.077-39.067l-39.102,41.042
				C134.47,578.123,131.339,581.324,130.334,580.319z"/>
			
				<linearGradient id="SVGID_28_" gradientUnits="userSpaceOnUse" x1="-1532.6835" y1="-2415.1392" x2="-1532.6835" y2="-2436.2598" gradientTransform="matrix(0.7071 0.7071 -0.7071 0.7071 -493.6736 3371.8335)">
				<stop  offset="0" style="stop-color:#FFFFB2"/>
				<stop  offset="1" style="stop-color:#FFD94E;stop-opacity:0"/>
			</linearGradient>
			<path style="fill:url(#SVGID_28_);" d="M130.334,580.319c-1.005-1.005,2.161-4.171,2.161-4.171l12.774-10.763l-10.799,12.739
				C134.47,578.123,131.339,581.324,130.334,580.319z"/>
		</g>
		
			<linearGradient id="SVGID_29_" gradientUnits="userSpaceOnUse" x1="1574.5424" y1="3818.8367" x2="1727.6764" y2="3818.8367" gradientTransform="matrix(0.7071 -0.7071 0.7071 0.7071 -3714.4636 -1063.5084)">
			<stop  offset="0" style="stop-color:#401D61"/>
			<stop  offset="1" style="stop-color:#090B3D"/>
		</linearGradient>
		<circle style="clip-path:url(#SVGID_2_);fill:url(#SVGID_29_);" cx="153.372" cy="469.306" r="76.567"/>
	</g>
</g>
</svg>
