<?xml version="1.0" encoding="iso-8859-1"?>
<!-- Generator: Adobe Illustrator 23.0.0, SVG Export Plug-In . SVG Version: 6.00 Build 0)  -->
<svg version="1.1" id="&#x56FE;&#x5C42;_1" xmlns="http://www.w3.org/2000/svg" xmlns:xlink="http://www.w3.org/1999/xlink" x="0px"
	 y="0px" viewBox="0 0 1040 720" style="enable-background:new 0 0 1040 720;" xml:space="preserve">
<g>
	<path style="fill:#EEF2FF;" d="M8.912,559.569c-30.885-86.071,78.034-109.959,123.487-173.448S3.884,304.088,98.41,205.692
		S281.83,29.19,484.356,14.791c124.333-8.84,515.466,55.852,466.393,223.846s140.984,212.501,70.995,325.078
		S671.596,748.725,530.412,674.983C475.707,646.184,110.477,813.523,8.912,559.569z"/>
	<path style="fill:#C7D0FF;" d="M38.037,556.733c-30.582-86.071,84.636-103.196,129.642-166.684s-136.014-77.67-42.417-176.066
		S346.11,45.989,546.647,31.59c123.112-8.84,441.499,53.889,392.908,221.882c-48.591,167.993,125.858,198.319,56.557,310.897
		s-320.62,184.356-460.418,110.614C481.527,646.184,138.604,810.686,38.037,556.733z"/>
	<g>
		<defs>
			<path id="SVGID_1_" d="M62.55,554.115c-30.214-86.071,78.895-96.433,123.36-159.921s-142.445-81.815-49.974-180.211
				S430.86,43.808,552.253,31.59S971.126,93.115,923.12,261.108c-48.006,167.993,114.703,190.683,46.235,303.261
				S679.548,748.725,541.432,674.983C487.916,646.184,161.907,808.068,62.55,554.115z"/>
		</defs>
		<clipPath id="SVGID_2_">
			<use xlink:href="#SVGID_1_"  style="overflow:visible;"/>
		</clipPath>
		<linearGradient id="SVGID_3_" gradientUnits="userSpaceOnUse" x1="521.8874" y1="367.6453" x2="927.8514" y2="367.6453">
			<stop  offset="0" style="stop-color:#060E3F"/>
			<stop  offset="1" style="stop-color:#151E66"/>
		</linearGradient>
		<path style="clip-path:url(#SVGID_2_);fill:url(#SVGID_3_);" d="M62.55,554.115c-30.214-86.071,78.895-96.433,123.36-159.921
			s-142.445-81.815-49.974-180.211S430.86,43.808,552.253,31.59S971.126,93.115,923.12,261.108
			c-48.006,167.993,114.703,190.683,46.235,303.261S679.548,748.725,541.432,674.983C487.916,646.184,161.907,808.068,62.55,554.115
			z"/>
		
			<linearGradient id="SVGID_4_" gradientUnits="userSpaceOnUse" x1="-2307.4048" y1="-2549.623" x2="-2304.4111" y2="-2925.9175" gradientTransform="matrix(1.1687 1.1687 -0.7999 0.7999 1110.7262 5102.4814)">
			<stop  offset="0" style="stop-color:#0C4594;stop-opacity:0"/>
			<stop  offset="0.5307" style="stop-color:#0C4594"/>
			<stop  offset="1" style="stop-color:#0E1755;stop-opacity:0"/>
		</linearGradient>
		<polygon style="opacity:0.3;clip-path:url(#SVGID_2_);fill:url(#SVGID_4_);" points="387.1,349.084 474.283,436.267 
			840.303,70.247 753.12,-16.936 		"/>
		
			<linearGradient id="SVGID_5_" gradientUnits="userSpaceOnUse" x1="-2458.1621" y1="-2607.7014" x2="-2455.1685" y2="-2983.9958" gradientTransform="matrix(1.1687 1.1687 -0.7999 0.7999 1110.7262 5102.4814)">
			<stop  offset="0" style="stop-color:#0C4594;stop-opacity:0"/>
			<stop  offset="0.5307" style="stop-color:#0C4594"/>
			<stop  offset="1" style="stop-color:#0E1755;stop-opacity:0"/>
		</linearGradient>
		<polygon style="opacity:0.3;clip-path:url(#SVGID_2_);fill:url(#SVGID_5_);" points="257.361,126.431 344.543,213.614 
			710.564,-152.407 623.381,-239.589 		"/>
		
			<linearGradient id="SVGID_6_" gradientUnits="userSpaceOnUse" x1="-2155.1125" y1="-2781.1104" x2="-2152.1189" y2="-3157.4048" gradientTransform="matrix(1.1687 1.1687 -0.7999 0.7999 1110.7262 5102.4814)">
			<stop  offset="0" style="stop-color:#0C4594;stop-opacity:0"/>
			<stop  offset="0.5307" style="stop-color:#0C4594"/>
			<stop  offset="1" style="stop-color:#0E1755;stop-opacity:0"/>
		</linearGradient>
		<polygon style="opacity:0.3;clip-path:url(#SVGID_2_);fill:url(#SVGID_6_);" points="750.258,341.908 837.44,429.091 
			1203.461,63.071 1116.278,-24.112 		"/>
		
			<linearGradient id="SVGID_7_" gradientUnits="userSpaceOnUse" x1="-2402.9814" y1="-2074.0176" x2="-2399.9878" y2="-2450.3123" gradientTransform="matrix(1.1687 1.1687 -0.7999 0.7999 1110.7262 5102.4814)">
			<stop  offset="0" style="stop-color:#0C4594;stop-opacity:0"/>
			<stop  offset="0.5307" style="stop-color:#0C4594"/>
			<stop  offset="1" style="stop-color:#0E1755;stop-opacity:0"/>
		</linearGradient>
		<polygon style="opacity:0.4;clip-path:url(#SVGID_2_);fill:url(#SVGID_7_);" points="-105.041,617.817 -17.859,705 
			348.162,338.98 260.979,251.797 		"/>
		
			<linearGradient id="SVGID_8_" gradientUnits="userSpaceOnUse" x1="-2148.0027" y1="-2263.5986" x2="-2145.0093" y2="-2639.8933" gradientTransform="matrix(1.1687 1.1687 -0.7999 0.7999 1110.7262 5102.4814)">
			<stop  offset="0" style="stop-color:#0C4594;stop-opacity:0"/>
			<stop  offset="0.5307" style="stop-color:#0C4594"/>
			<stop  offset="1" style="stop-color:#0E1755;stop-opacity:0"/>
		</linearGradient>
		<polygon style="opacity:0.3;clip-path:url(#SVGID_2_);fill:url(#SVGID_8_);" points="344.609,764.175 431.792,851.358 
			797.812,485.338 710.629,398.155 		"/>
		
			<linearGradient id="SVGID_9_" gradientUnits="userSpaceOnUse" x1="566.2269" y1="-2378.8115" x2="569.2205" y2="-2755.1062" gradientTransform="matrix(0.4219 0.4219 -0.7999 0.7999 -1797.0323 2194.7236)">
			<stop  offset="0" style="stop-color:#0C4594;stop-opacity:0"/>
			<stop  offset="0.5307" style="stop-color:#0C4594"/>
			<stop  offset="1" style="stop-color:#0E1755;stop-opacity:0"/>
		</linearGradient>
		<polygon style="opacity:0.5;clip-path:url(#SVGID_2_);fill:url(#SVGID_9_);" points="305.045,540.294 336.517,571.767 
			702.538,205.746 671.065,174.274 		"/>
		<g style="opacity:0.5;clip-path:url(#SVGID_2_);">
			<linearGradient id="SVGID_10_" gradientUnits="userSpaceOnUse" x1="511.4864" y1="213.8042" x2="511.4864" y2="172.1155">
				<stop  offset="0" style="stop-color:#0C4594;stop-opacity:0"/>
				<stop  offset="1" style="stop-color:#394987"/>
			</linearGradient>
			<polygon style="fill:url(#SVGID_10_);" points="530.56,216.069 492.413,216.069 502.988,168.857 519.985,168.857 			"/>
			<path style="fill:#090933;" d="M543.836,174.333h-65.454c-2.654,0-4.825-2.171-4.825-4.825v-1.264
				c0-2.654,2.171-4.825,4.825-4.825h65.454c2.654,0,4.825,2.171,4.825,4.825v1.264C548.661,172.162,546.49,174.333,543.836,174.333
				z"/>
			<path style="fill:#090933;" d="M529.422,164.131c0,10.114-36.627,10.114-36.627,0s8.199-18.314,18.314-18.314
				C521.223,145.817,529.422,154.016,529.422,164.131z"/>
		</g>
		<g style="opacity:0.5;clip-path:url(#SVGID_2_);">
			<linearGradient id="SVGID_11_" gradientUnits="userSpaceOnUse" x1="697.6093" y1="688.5466" x2="697.6093" y2="663.78">
				<stop  offset="0" style="stop-color:#0C4594;stop-opacity:0"/>
				<stop  offset="1" style="stop-color:#394987"/>
			</linearGradient>
			<polygon style="fill:url(#SVGID_11_);" points="713.237,689.892 681.981,689.892 690.646,661.844 704.572,661.844 			"/>
			<path style="fill:#090933;" d="M725.201,665.097h-55.803c-1.577,0-2.866-1.29-2.866-2.866v-0.751c0-1.577,1.29-2.866,2.866-2.866
				h55.803c1.577,0,2.867,1.29,2.867,2.866v0.751C728.068,663.807,726.778,665.097,725.201,665.097z"/>
			<path style="fill:#090933;" d="M712.305,659.036c0,6.009-30.01,6.009-30.01,0s6.718-10.88,15.005-10.88
				C705.587,648.156,712.305,653.027,712.305,659.036z"/>
		</g>
		<g style="opacity:0.5;clip-path:url(#SVGID_2_);">
			<linearGradient id="SVGID_12_" gradientUnits="userSpaceOnUse" x1="222.8419" y1="473.2583" x2="222.8419" y2="448.4917">
				<stop  offset="0" style="stop-color:#0C4594;stop-opacity:0"/>
				<stop  offset="1" style="stop-color:#394987"/>
			</linearGradient>
			<polygon style="fill:url(#SVGID_12_);" points="238.47,474.604 207.214,474.604 215.879,446.556 229.805,446.556 			"/>
			<path style="fill:#090933;" d="M250.434,449.809h-55.803c-1.577,0-2.867-1.29-2.867-2.866v-0.751c0-1.577,1.29-2.866,2.867-2.866
				h55.803c1.577,0,2.866,1.29,2.866,2.866v0.751C253.301,448.519,252.011,449.809,250.434,449.809z"/>
			<path style="fill:#090933;" d="M237.538,443.748c0,6.009-30.01,6.009-30.01,0c0-6.009,6.718-10.88,15.005-10.88
				C230.82,432.868,237.538,437.739,237.538,443.748z"/>
		</g>
		<radialGradient id="SVGID_13_" cx="927.8994" cy="217.0131" r="193.3818" gradientUnits="userSpaceOnUse">
			<stop  offset="0" style="stop-color:#102785"/>
			<stop  offset="1" style="stop-color:#112586;stop-opacity:0"/>
		</radialGradient>
		<circle style="clip-path:url(#SVGID_2_);fill:url(#SVGID_13_);" cx="927.899" cy="217.013" r="193.382"/>
		
			<radialGradient id="SVGID_14_" cx="-1372.3933" cy="727.8508" r="193.3818" gradientTransform="matrix(1.4434 0 0 1 2517.8379 0)" gradientUnits="userSpaceOnUse">
			<stop  offset="0" style="stop-color:#102785"/>
			<stop  offset="1" style="stop-color:#112586;stop-opacity:0"/>
		</radialGradient>
		<ellipse style="clip-path:url(#SVGID_2_);fill:url(#SVGID_14_);" cx="536.981" cy="727.851" rx="279.119" ry="193.382"/>
		<path style="opacity:0.6;clip-path:url(#SVGID_2_);fill:#2E2E6C;" d="M720.543-4.318C770.21,0.403,831.586,163.38,875.399,194.162
			s83.849,167.321,0,178.274s-19.263,146.925,31.916,204.902c51.178,57.977-50.612,213.966-121.619,177.33
			S657.467,563.363,551.9,589.235S274.103,783.561,219.148,738.049S96.532,645.965,96.532,645.965s89.755-125.471,136.968-85.246
			s168.882-89.139,318.4-113.499c100.846-16.43,134.272,68.363,178.652,77.995c44.38,9.631-69.308-106.511-26.628-167.887
			c42.68-61.376-108.777-378.077-210.378-361.647C758.313-49.265,720.543-4.318,720.543-4.318z"/>
		<g id="&#x70B9;&#x661F;&#x7EC4;" style="clip-path:url(#SVGID_2_);">
			<radialGradient id="SVGID_15_" cx="615.5424" cy="679.8831" r="3.9658" gradientUnits="userSpaceOnUse">
				<stop  offset="0.1955" style="stop-color:#FFFFFF"/>
				<stop  offset="0.8827" style="stop-color:#FFFFFF;stop-opacity:0"/>
			</radialGradient>
			<circle style="fill:url(#SVGID_15_);" cx="615.542" cy="679.883" r="3.966"/>
			<radialGradient id="SVGID_16_" cx="581.3607" cy="424.5586" r="3.9658" gradientUnits="userSpaceOnUse">
				<stop  offset="0.1955" style="stop-color:#FFFFFF"/>
				<stop  offset="0.8827" style="stop-color:#FFFFFF;stop-opacity:0"/>
			</radialGradient>
			<circle style="fill:url(#SVGID_16_);" cx="581.361" cy="424.559" r="3.966"/>
			<radialGradient id="SVGID_17_" cx="99.2281" cy="586.7803" r="3.9658" gradientUnits="userSpaceOnUse">
				<stop  offset="0.1955" style="stop-color:#FFFFFF"/>
				<stop  offset="0.8827" style="stop-color:#FFFFFF;stop-opacity:0"/>
			</radialGradient>
			<circle style="fill:url(#SVGID_17_);" cx="99.228" cy="586.78" r="3.966"/>
			
				<radialGradient id="SVGID_18_" cx="-3040.5901" cy="-3267.6353" r="3.472" gradientTransform="matrix(0.7071 0.7071 -0.7071 0.7071 38.2066 4979.7612)" gradientUnits="userSpaceOnUse">
				<stop  offset="0.1955" style="stop-color:#FFFFFF"/>
				<stop  offset="0.8827" style="stop-color:#FFFFFF;stop-opacity:0"/>
			</radialGradient>
			<circle style="fill:url(#SVGID_18_);" cx="198.752" cy="519.172" r="3.472"/>
			<radialGradient id="SVGID_19_" cx="635.2772" cy="176.1272" r="1.9829" gradientUnits="userSpaceOnUse">
				<stop  offset="0.1955" style="stop-color:#FFFFFF"/>
				<stop  offset="0.8827" style="stop-color:#FFFFFF;stop-opacity:0"/>
			</radialGradient>
			<circle style="fill:url(#SVGID_19_);" cx="635.277" cy="176.127" r="1.983"/>
			<radialGradient id="SVGID_20_" cx="559.5486" cy="158.7531" r="1.9829" gradientUnits="userSpaceOnUse">
				<stop  offset="0.1955" style="stop-color:#FFFFFF"/>
				<stop  offset="0.8827" style="stop-color:#FFFFFF;stop-opacity:0"/>
			</radialGradient>
			<circle style="fill:url(#SVGID_20_);" cx="559.549" cy="158.753" r="1.983"/>
			<radialGradient id="SVGID_21_" cx="565.7806" cy="101.154" r="1.9829" gradientUnits="userSpaceOnUse">
				<stop  offset="0.1955" style="stop-color:#FFFFFF"/>
				<stop  offset="0.8827" style="stop-color:#FFFFFF;stop-opacity:0"/>
			</radialGradient>
			<circle style="fill:url(#SVGID_21_);" cx="565.781" cy="101.154" r="1.983"/>
			<radialGradient id="SVGID_22_" cx="464.1796" cy="116.262" r="1.9829" gradientUnits="userSpaceOnUse">
				<stop  offset="0.1955" style="stop-color:#FFFFFF"/>
				<stop  offset="0.8827" style="stop-color:#FFFFFF;stop-opacity:0"/>
			</radialGradient>
			<circle style="fill:url(#SVGID_22_);" cx="464.18" cy="116.262" r="1.983"/>
			<radialGradient id="SVGID_23_" cx="483.6311" cy="66.5946" r="1.9829" gradientUnits="userSpaceOnUse">
				<stop  offset="0.1955" style="stop-color:#FFFFFF"/>
				<stop  offset="0.8827" style="stop-color:#FFFFFF;stop-opacity:0"/>
			</radialGradient>
			<circle style="fill:url(#SVGID_23_);" cx="483.631" cy="66.595" r="1.983"/>
			<radialGradient id="SVGID_24_" cx="880.4037" cy="184.0589" r="1.9829" gradientUnits="userSpaceOnUse">
				<stop  offset="0.1955" style="stop-color:#FFFFFF"/>
				<stop  offset="0.8827" style="stop-color:#FFFFFF;stop-opacity:0"/>
			</radialGradient>
			<circle style="fill:url(#SVGID_24_);" cx="880.404" cy="184.059" r="1.983"/>
			<radialGradient id="SVGID_25_" cx="839.99" cy="124.5713" r="1.9829" gradientUnits="userSpaceOnUse">
				<stop  offset="0.1955" style="stop-color:#FFFFFF"/>
				<stop  offset="0.8827" style="stop-color:#FFFFFF;stop-opacity:0"/>
			</radialGradient>
			<circle style="fill:url(#SVGID_25_);" cx="839.99" cy="124.571" r="1.983"/>
			<radialGradient id="SVGID_26_" cx="692.8763" cy="354.2122" r="1.9829" gradientUnits="userSpaceOnUse">
				<stop  offset="0.1955" style="stop-color:#FFFFFF"/>
				<stop  offset="0.8827" style="stop-color:#FFFFFF;stop-opacity:0"/>
			</radialGradient>
			<circle style="fill:url(#SVGID_26_);" cx="692.876" cy="354.212" r="1.983"/>
			<radialGradient id="SVGID_27_" cx="198.6574" cy="312.4765" r="1.9829" gradientUnits="userSpaceOnUse">
				<stop  offset="0.1955" style="stop-color:#FFFFFF"/>
				<stop  offset="0.8827" style="stop-color:#FFFFFF;stop-opacity:0"/>
			</radialGradient>
			<circle style="fill:url(#SVGID_27_);" cx="198.657" cy="312.477" r="1.983"/>
			<radialGradient id="SVGID_28_" cx="245.8697" cy="377.4407" r="1.9829" gradientUnits="userSpaceOnUse">
				<stop  offset="0.1955" style="stop-color:#FFFFFF"/>
				<stop  offset="0.8827" style="stop-color:#FFFFFF;stop-opacity:0"/>
			</radialGradient>
			<circle style="fill:url(#SVGID_28_);" cx="245.87" cy="377.441" r="1.983"/>
			<radialGradient id="SVGID_29_" cx="126.5169" cy="576.1103" r="1.9829" gradientUnits="userSpaceOnUse">
				<stop  offset="0.1955" style="stop-color:#FFFFFF"/>
				<stop  offset="0.8827" style="stop-color:#FFFFFF;stop-opacity:0"/>
			</radialGradient>
			<circle style="fill:url(#SVGID_29_);" cx="126.517" cy="576.11" r="1.983"/>
			<radialGradient id="SVGID_30_" cx="77.9826" cy="538.9069" r="1.9829" gradientUnits="userSpaceOnUse">
				<stop  offset="0.1955" style="stop-color:#FFFFFF"/>
				<stop  offset="0.8827" style="stop-color:#FFFFFF;stop-opacity:0"/>
			</radialGradient>
			<circle style="fill:url(#SVGID_30_);" cx="77.983" cy="538.907" r="1.983"/>
			<radialGradient id="SVGID_31_" cx="145.9684" cy="475.0758" r="1.9829" gradientUnits="userSpaceOnUse">
				<stop  offset="0.1955" style="stop-color:#FFFFFF"/>
				<stop  offset="0.8827" style="stop-color:#FFFFFF;stop-opacity:0"/>
			</radialGradient>
			<circle style="fill:url(#SVGID_31_);" cx="145.968" cy="475.076" r="1.983"/>
			<radialGradient id="SVGID_32_" cx="495.5286" cy="653.3497" r="1.9829" gradientUnits="userSpaceOnUse">
				<stop  offset="0.1955" style="stop-color:#FFFFFF"/>
				<stop  offset="0.8827" style="stop-color:#FFFFFF;stop-opacity:0"/>
			</radialGradient>
			<circle style="fill:url(#SVGID_32_);" cx="495.529" cy="653.35" r="1.983"/>
			<radialGradient id="SVGID_33_" cx="675.5021" cy="691.8749" r="1.9829" gradientUnits="userSpaceOnUse">
				<stop  offset="0.1955" style="stop-color:#FFFFFF"/>
				<stop  offset="0.8827" style="stop-color:#FFFFFF;stop-opacity:0"/>
			</radialGradient>
			<circle style="fill:url(#SVGID_33_);" cx="675.502" cy="691.875" r="1.983"/>
			<radialGradient id="SVGID_34_" cx="652.6514" cy="640.3191" r="1.9829" gradientUnits="userSpaceOnUse">
				<stop  offset="0.1955" style="stop-color:#FFFFFF"/>
				<stop  offset="0.8827" style="stop-color:#FFFFFF;stop-opacity:0"/>
			</radialGradient>
			<circle style="fill:url(#SVGID_34_);" cx="652.651" cy="640.319" r="1.983"/>
			<radialGradient id="SVGID_35_" cx="548.7842" cy="609.3478" r="1.9829" gradientUnits="userSpaceOnUse">
				<stop  offset="0.1955" style="stop-color:#FFFFFF"/>
				<stop  offset="0.8827" style="stop-color:#FFFFFF;stop-opacity:0"/>
			</radialGradient>
			<circle style="fill:url(#SVGID_35_);" cx="548.784" cy="609.348" r="1.983"/>
		</g>
		<g id="&#x83F1;&#x661F;&#x7EC4;_1_" style="clip-path:url(#SVGID_2_);">
			<radialGradient id="SVGID_36_" cx="684.9446" cy="458.8348" r="18.6077" gradientUnits="userSpaceOnUse">
				<stop  offset="0.1955" style="stop-color:#FFFFFF"/>
				<stop  offset="0.8827" style="stop-color:#FFFFFF;stop-opacity:0"/>
			</radialGradient>
			<path style="fill:url(#SVGID_36_);" d="M703.074,459.59l-1.564-1.564c0,0-9.705-1.018-11.766-3.079s-3.479-13.866-3.479-13.866
				l-1.32-1.32l-1.351,1.351c0,0-0.657,11.421-3.288,13.675s-11.791,3.104-11.791,3.104l-1.7,1.7l1.893,1.893
				c0,0,8.654-0.222,11.643,2.956c2.989,3.178,3.492,12.368,3.492,12.368l1.102,1.102l1.219-1.219c0,0,0.099-8.786,3.264-12.14
				s12.166-3.479,12.166-3.479L703.074,459.59z"/>
			<radialGradient id="SVGID_37_" cx="595.9965" cy="639.5637" r="13.4491" gradientUnits="userSpaceOnUse">
				<stop  offset="0.1955" style="stop-color:#FFFFFF"/>
				<stop  offset="0.8827" style="stop-color:#FFFFFF;stop-opacity:0"/>
			</radialGradient>
			<path style="fill:url(#SVGID_37_);" d="M609.1,640.11l-1.13-1.131c0,0-7.015-0.736-8.504-2.225s-2.515-10.022-2.515-10.022
				l-0.954-0.954l-0.976,0.976c0,0-0.475,8.255-2.377,9.884s-8.522,2.243-8.522,2.243l-1.228,1.228l1.368,1.368
				c0,0,6.255-0.16,8.415,2.136c2.16,2.297,2.524,8.939,2.524,8.939l0.797,0.797l0.881-0.881c0,0,0.071-6.35,2.359-8.774
				s8.794-2.515,8.794-2.515L609.1,640.11z"/>
			<radialGradient id="SVGID_38_" cx="122.3622" cy="538.9069" r="8.8432" gradientUnits="userSpaceOnUse">
				<stop  offset="0.1955" style="stop-color:#FFFFFF"/>
				<stop  offset="0.8827" style="stop-color:#FFFFFF;stop-opacity:0"/>
			</radialGradient>
			<path style="fill:url(#SVGID_38_);" d="M130.978,539.266l-0.743-0.743c0,0-4.612-0.484-5.592-1.463
				c-0.979-0.979-1.654-6.59-1.654-6.59l-0.627-0.627l-0.642,0.642c0,0-0.312,5.428-1.563,6.499
				c-1.251,1.071-5.604,1.475-5.604,1.475l-0.808,0.808l0.899,0.899c0,0,4.113-0.105,5.533,1.405s1.659,5.878,1.659,5.878
				l0.524,0.524l0.579-0.58c0,0,0.047-4.175,1.551-5.769c1.504-1.594,5.782-1.654,5.782-1.654L130.978,539.266z"/>
			<radialGradient id="SVGID_39_" cx="520.4568" cy="99.0767" r="8.8432" gradientUnits="userSpaceOnUse">
				<stop  offset="0.1955" style="stop-color:#FFFFFF"/>
				<stop  offset="0.8827" style="stop-color:#FFFFFF;stop-opacity:0"/>
			</radialGradient>
			<path style="fill:url(#SVGID_39_);" d="M529.073,99.436l-0.743-0.743c0,0-4.612-0.484-5.592-1.463
				c-0.979-0.979-1.654-6.59-1.654-6.59l-0.627-0.627l-0.642,0.642c0,0-0.312,5.428-1.563,6.499
				c-1.251,1.071-5.604,1.475-5.604,1.475l-0.808,0.808l0.899,0.899c0,0,4.113-0.105,5.533,1.405s1.659,5.878,1.659,5.878
				l0.524,0.524l0.579-0.579c0,0,0.047-4.175,1.551-5.769s5.782-1.654,5.782-1.654L529.073,99.436z"/>
			<radialGradient id="SVGID_40_" cx="877.0045" cy="157.62" r="8.8432" gradientUnits="userSpaceOnUse">
				<stop  offset="0.1955" style="stop-color:#FFFFFF"/>
				<stop  offset="0.8827" style="stop-color:#FFFFFF;stop-opacity:0"/>
			</radialGradient>
			<path style="fill:url(#SVGID_40_);" d="M885.62,157.979l-0.743-0.743c0,0-4.612-0.484-5.592-1.463s-1.654-6.59-1.654-6.59
				l-0.627-0.627l-0.642,0.642c0,0-0.312,5.428-1.563,6.499c-1.251,1.071-5.604,1.475-5.604,1.475l-0.808,0.808l0.899,0.899
				c0,0,4.113-0.105,5.533,1.405s1.659,5.878,1.659,5.878l0.524,0.524l0.579-0.579c0,0,0.047-4.175,1.551-5.769
				c1.504-1.594,5.782-1.654,5.782-1.654L885.62,157.979z"/>
		</g>
		<g style="clip-path:url(#SVGID_2_);">
			<linearGradient id="SVGID_41_" gradientUnits="userSpaceOnUse" x1="74.1844" y1="632.8795" x2="227.6026" y2="738.7759">
				<stop  offset="0" style="stop-color:#5C2261"/>
				<stop  offset="0.5091" style="stop-color:#1E0F57"/>
				<stop  offset="1" style="stop-color:#435693"/>
			</linearGradient>
			<circle style="fill:url(#SVGID_41_);" cx="150.557" cy="685.596" r="93.207"/>
			<linearGradient id="SVGID_42_" gradientUnits="userSpaceOnUse" x1="143.1274" y1="632.8714" x2="164.0835" y2="632.8714">
				<stop  offset="0" style="stop-color:#21195E"/>
				<stop  offset="1" style="stop-color:#5586AE"/>
			</linearGradient>
			<ellipse style="opacity:0.5;fill:url(#SVGID_42_);" cx="153.605" cy="632.871" rx="10.476" ry="7.731"/>
			<linearGradient id="SVGID_43_" gradientUnits="userSpaceOnUse" x1="177.7632" y1="654.5892" x2="210.0179" y2="654.5892">
				<stop  offset="0" style="stop-color:#21195E"/>
				<stop  offset="1" style="stop-color:#5586AE"/>
			</linearGradient>
			<ellipse style="opacity:0.5;fill:url(#SVGID_43_);" cx="193.891" cy="654.589" rx="16.124" ry="11.899"/>
			<linearGradient id="SVGID_44_" gradientUnits="userSpaceOnUse" x1="136.9717" y1="674.6072" x2="169.2265" y2="674.6072">
				<stop  offset="0" style="stop-color:#21195E"/>
				<stop  offset="1" style="stop-color:#5586AE"/>
			</linearGradient>
			<ellipse style="opacity:0.5;fill:url(#SVGID_44_);" cx="153.099" cy="674.607" rx="16.124" ry="11.899"/>
		</g>
	</g>
</g>
</svg>
